# xmcd
#
# Track frame offsets:
#	150
#	12699
#	32888
#	50101
#	63694
#	78116
#	93471
#	109108
#	120608
#	135922
#	151254
#	164178
#	177175
#	192025
#	208040
#	222435
#	235996
#	250982
#	267835
#	282712
#
# Disc length: 3982 seconds
#
# Revision: 0
# Processed by: cddbd v1.5PL3 Copyright (c) Steve Scherf et al.
# Submitted via: audiograbber 1.83.01
#
DISCID=2e0f8c14
DTITLE=Koch Universal - Country in Gold CD 01
DYEAR=2003
DGENRE=Country
TTITLE0=Truck Stop - Der wilde wilde Westen
TTITLE1=Johnny Hill - Hallo Teddybär
TTITLE2=Linda Feller - Du bist das Salz in meiner Suppe
TTITLE3=Frank Braun and Country Green - Hallo Nachbar, guten Morgen
TTITLE4=Greyhounds - Country Songs and Honky Tonks
TTITLE5=Truck Riders - Frei sein
TTITLE6=Max Zwo - Im Cowboyhimmel
TTITLE7=Country Rose - Spass am Leben
TTITLE8=Bruce Low - Es hängt ein Pferdehalfter an der Wand
TTITLE9=Gunter Gabriel - Truck Stop, Tom Astor und ich
TTITLE10=Trucks aus dem Zillertal - Sie liebt nur Kris Kristofferson
TTITLE11=Mike Herman and Booze Company - Verliebt in Country
TTITLE12=Lady Dagmar - Ich lieb dich noch in hundert Jahren
TTITLE13=Truck Stop - Ich möcht so gern Dave Dudley hör´n
TTITLE14=Joe Hodgkins Boss Band - Hilly Billy Western Willy
TTITLE15=Iris McCollins - Das geht ganz tief rein
TTITLE16=Canyon - Mädchen aus meinen Träumen
TTITLE17=Rubber Duck - Ich nehm den längsten Weg nach Hause
TTITLE18=Johnny Hill - Steh au und leb dein Leben
TTITLE19=Tex Haper - Auch ein Trucker hat ein Herz
EXTD=
EXTT0=
EXTT1=
EXTT2=
EXTT3=
EXTT4=
EXTT5=
EXTT6=
EXTT7=
EXTT8=
EXTT9=
EXTT10=
EXTT11=
EXTT12=
EXTT13=
EXTT14=
EXTT15=
EXTT16=
EXTT17=
EXTT18=
EXTT19=
PLAYORDER=
